# Blender v2.79 (sub 0) OBJ File: 'mustard.blend'
# www.blender.org
mtllib mustard.mtl
o visual_visual_mesh
v -0.016886 -0.033619 -0.117420
v -0.014962 -0.037669 -0.092387
v 0.028922 -0.027041 -0.117420
v 0.028973 -0.031797 -0.092394
v 0.004583 -0.024024 -0.117420
v 0.006606 -0.037255 -0.092387
v -0.014217 -0.039396 -0.057643
v -0.014025 -0.039824 -0.022902
v 0.029168 -0.034175 -0.057650
v 0.029478 -0.035656 -0.022907
v 0.006861 -0.039675 -0.057643
v 0.006596 -0.040750 -0.022900
v -0.013515 -0.040249 0.011840
v -0.013271 -0.039608 0.046581
v 0.029892 -0.036480 0.011836
v 0.028704 -0.035610 0.046576
v 0.006886 -0.041485 0.011842
v 0.006760 -0.041367 0.046583
v -0.015239 -0.035262 0.073245
v 0.028064 -0.029572 0.073940
v 0.005505 -0.028890 0.085169
v 0.003594 -0.014431 0.105350
v -0.036284 -0.022696 -0.117420
v -0.040437 -0.028537 -0.092398
v -0.054223 -0.008604 -0.117420
v -0.059949 -0.008523 -0.092422
v -0.043979 0.010310 -0.117420
v -0.053088 0.016784 -0.092452
v -0.041591 -0.030127 -0.057654
v -0.041997 -0.030660 -0.022913
v -0.062006 -0.008233 -0.057681
v -0.062376 -0.008456 -0.022939
v -0.055821 0.018758 -0.057713
v -0.055821 0.018800 -0.022972
v -0.042027 -0.030660 0.011829
v -0.040256 -0.028115 0.046567
v -0.061627 -0.008901 0.011803
v -0.056994 -0.009152 0.046544
v -0.054499 0.017906 0.011770
v -0.049604 0.014487 0.046516
v -0.036107 -0.022215 0.073960
v -0.051695 -0.008967 0.067989
v -0.026961 -0.004803 0.091331
v -0.013267 -0.002508 0.105336
v -0.041686 0.008920 0.073825
v 0.044485 -0.009697 -0.117420
v 0.051677 -0.014752 -0.092414
v 0.055712 0.008828 -0.117420
v 0.060855 0.009384 -0.092443
v 0.038121 0.022349 -0.117420
v 0.042646 0.028779 -0.092466
v 0.054580 -0.016763 -0.057670
v 0.056414 -0.018019 -0.022928
v 0.062910 0.008868 -0.057701
v 0.063913 0.008399 -0.022959
v 0.043844 0.030515 -0.057727
v 0.043869 0.030592 -0.022986
v 0.056784 -0.018239 0.011814
v 0.052501 -0.015169 0.046551
v 0.063550 0.008593 0.011782
v 0.058960 0.008721 0.046523
v 0.043708 0.030406 0.011755
v 0.041665 0.027559 0.046500
v 0.044060 -0.009166 0.074193
v 0.028735 0.004359 0.090882
v 0.014994 0.001689 0.105331
v 0.053544 0.008728 0.067597
v 0.037671 0.021943 0.072736
v -0.002354 0.024579 -0.117420
v -0.004241 0.039418 -0.092479
v -0.027449 0.028919 -0.117420
v -0.027902 0.034876 -0.092474
v 0.018304 0.033272 -0.117420
v 0.016149 0.038166 -0.092477
v -0.005565 0.041186 -0.057740
v -0.005439 0.041118 -0.022999
v -0.028775 0.036325 -0.057734
v -0.028664 0.036266 -0.022993
v 0.015228 0.040504 -0.057739
v 0.015295 0.040353 -0.022998
v -0.005294 0.041068 0.011743
v -0.005051 0.040117 0.046485
v -0.028065 0.035895 0.011749
v -0.026784 0.034210 0.046492
v 0.015323 0.040138 0.011744
v 0.015399 0.038951 0.046486
v -0.003707 0.027983 0.084089
v -0.001867 0.013613 0.105317
v -0.026191 0.028598 0.073038
v 0.017408 0.034710 0.071970
vt 0.368109 0.094199
vt 0.368193 0.224885
vt 0.331871 0.224919
vt 0.328586 0.094199
vt 0.293721 0.094199
vt 0.296847 0.224922
vt 0.366602 0.339937
vt 0.367056 0.456796
vt 0.333641 0.456817
vt 0.334029 0.339959
vt 0.303249 0.339958
vt 0.303529 0.456813
vt 0.367661 0.573653
vt 0.371408 0.698420
vt 0.335027 0.698447
vt 0.335235 0.565779
vt 0.301412 0.565773
vt 0.301817 0.698438
vt 0.364990 0.752833
vt 0.332979 0.827043
vt 0.302687 0.786938
vt 0.262221 0.094199
vt 0.255477 0.224865
vt 0.223792 0.224740
vt 0.233091 0.094199
vt 0.643408 0.238588
vt 0.652222 0.238498
vt 0.663922 0.164626
vt 0.650764 0.164626
vt 0.625823 0.098013
vt 0.643995 0.098013
vt 0.657645 0.098013
vt 0.263274 0.339921
vt 0.262681 0.456776
vt 0.232921 0.456686
vt 0.233463 0.339832
vt 0.640290 0.444161
vt 0.648711 0.444064
vt 0.648711 0.341278
vt 0.640767 0.341373
vt 0.254142 0.565729
vt 0.257077 0.698386
vt 0.229326 0.698299
vt 0.221645 0.565630
vt 0.621370 0.647178
vt 0.634156 0.647065
vt 0.648175 0.561947
vt 0.638732 0.562045
vt 0.479635 0.704563
vt 0.467539 0.671443
vt 0.459318 0.660400
vt 0.472122 0.671698
vt 0.272213 0.789343
vt 0.248519 0.762524
vt 0.630539 0.732633
vt 0.647855 0.755892
vt 0.769380 0.164626
vt 0.775192 0.238456
vt 0.798581 0.238524
vt 0.791975 0.164626
vt 0.393383 0.094199
vt 0.411613 0.094199
vt 0.419964 0.224628
vt 0.405060 0.224779
vt 0.800927 0.098013
vt 0.773318 0.098013
vt 0.730142 0.098013
vt 0.776730 0.341236
vt 0.776763 0.444022
vt 0.802510 0.444101
vt 0.801221 0.341313
vt 0.403711 0.339867
vt 0.415876 0.339763
vt 0.417341 0.456618
vt 0.406390 0.456725
vt 0.778278 0.561901
vt 0.792060 0.647002
vt 0.821983 0.647093
vt 0.804564 0.561981
vt 0.417963 0.565673
vt 0.429180 0.565550
vt 0.421571 0.698217
vt 0.410863 0.698327
vt 0.812612 0.731075
vt 0.785150 0.751552
vt 0.769691 0.823864
vt 0.796205 0.757359
vt 0.402199 0.761209
vt 0.388350 0.753686
vt 0.685155 0.164626
vt 0.684572 0.238434
vt 0.714966 0.238418
vt 0.717390 0.164626
vt 0.741157 0.238422
vt 0.743925 0.164626
vt 0.683451 0.341215
vt 0.683595 0.444002
vt 0.713427 0.443985
vt 0.713265 0.341198
vt 0.740060 0.443987
vt 0.739973 0.341200
vt 0.683194 0.561881
vt 0.673638 0.646971
vt 0.711237 0.646942
vt 0.713360 0.561862
vt 0.746619 0.646948
vt 0.740675 0.561865
vt 0.674663 0.752756
vt 0.713563 0.796792
vt 0.750093 0.748497
vt 0.717836 0.098013
vt 0.366902 0.846262
vt 0.344974 0.954882
vt 0.328327 0.954947
vt 0.702798 0.847454
vt 0.717901 0.847396
vt 0.673331 0.825652
vt 0.789637 0.098013
vt 0.692056 0.098013
vt 0.303705 0.954898
vt 0.285569 0.847771
vt 0.740239 0.847439
vt 0.820842 0.098013
vt 0.760544 0.912081
vt 0.720833 0.912004
vt 0.693983 0.912109
vt 0.733695 0.912186
vt 0.673318 0.098013
vt 0.754342 0.146840
vn 0.0490 -0.9393 -0.3395
vn 0.2135 -0.9182 -0.3338
vn 0.2281 -0.9730 -0.0359
vn -0.0289 -0.9993 -0.0216
vn 0.2377 -0.9689 -0.0684
vn 0.0032 -0.9982 -0.0596
vn 0.2328 -0.9723 0.0182
vn -0.0739 -0.9972 0.0110
vn 0.1763 -0.9464 0.2707
vn 0.0360 -0.9673 0.2512
vn -0.6578 -0.7224 -0.2131
vn -0.8873 0.3430 -0.3084
vn -0.0000 -0.0000 -1.0000
vn -0.7340 -0.6790 -0.0156
vn -0.9735 0.2286 -0.0046
vn -0.7232 -0.6891 -0.0463
vn -0.9676 0.2413 -0.0746
vn -0.7431 -0.6630 0.0904
vn -0.9508 0.2738 0.1448
vn -0.6711 -0.1171 0.7320
vn -0.7087 -0.6702 0.2206
vn -0.8986 0.3372 0.2808
vn 0.6591 0.7167 -0.2279
vn 0.8727 -0.4176 -0.2529
vn 0.7462 0.6657 -0.0073
vn 0.9557 -0.2907 -0.0462
vn 0.7395 0.6716 -0.0464
vn 0.9403 -0.3309 -0.0791
vn 0.7348 0.6714 0.0964
vn 0.9590 -0.2499 0.1340
vn 0.6584 0.1696 0.7333
vn 0.6953 0.6845 0.2194
vn 0.9074 -0.2994 0.2950
vn -0.0039 0.9229 -0.3849
vn -0.1654 0.9124 -0.3744
vn -0.2047 0.9788 0.0025
vn 0.0348 0.9994 0.0031
vn -0.1965 0.9792 -0.0515
vn 0.0468 0.9973 -0.0574
vn -0.2414 0.9695 0.0421
vn 0.0509 0.9982 0.0305
vn -0.1801 0.9466 0.2673
vn -0.0553 0.9657 0.2536
vn 0.6495 -0.7229 -0.2358
vn 0.5556 -0.8299 -0.0498
vn 0.5805 -0.8106 -0.0771
vn 0.6041 -0.7915 0.0925
vn 0.6848 -0.5372 0.4924
vn 0.4371 -0.4087 0.8012
vn 0.6906 -0.6743 0.2616
vn -0.6304 0.7163 -0.2992
vn -0.5428 0.8398 0.0011
vn -0.5625 0.8238 -0.0698
vn -0.6041 0.7891 0.1117
vn -0.6767 0.5518 0.4874
vn -0.4335 0.4405 0.7861
vn -0.6916 0.6777 0.2499
vn -0.4002 -0.8955 -0.1948
vn -0.3160 -0.9487 -0.0141
vn -0.3284 -0.9434 -0.0470
vn 0.3917 0.8931 -0.2213
vn 0.3264 0.9452 0.0006
vn 0.3312 0.9419 -0.0565
vn -0.3546 -0.9335 0.0531
vn -0.4632 -0.7222 0.5136
vn -0.2977 -0.5695 0.7662
vn -0.4464 -0.8757 0.1840
vn 0.3598 0.9308 0.0642
vn 0.4587 0.7326 0.5029
vn 0.2931 0.5820 0.7585
vn 0.4505 0.8736 0.1838
vn 0.2149 -0.9763 -0.0241
vn -0.0526 -0.9985 -0.0161
vn -0.7398 -0.6728 0.0033
vn -0.9689 0.2453 0.0336
vn 0.7409 0.6716 0.0055
vn 0.9659 -0.2588 -0.0002
vn -0.2129 0.9770 0.0082
vn 0.0409 0.9992 0.0037
vn -0.3151 -0.9491 -0.0036
vn 0.3238 0.9461 0.0061
vn 0.5545 -0.8320 -0.0188
vn -0.5515 0.8336 0.0304
vn 0.0000 0.0012 1.0000
usemtl material
s off
f 3/1/1 4/2/1 6/3/1 5/4/1
f 1/5/2 5/4/2 6/3/2 2/6/2
f 9/7/3 10/8/3 12/9/3 11/10/3
f 7/11/4 11/10/4 12/9/4 8/12/4
f 4/2/5 9/7/5 11/10/5 6/3/5
f 2/6/6 6/3/6 11/10/6 7/11/6
f 15/13/7 16/14/7 18/15/7 17/16/7
f 13/17/8 17/16/8 18/15/8 14/18/8
f 16/14/9 20/19/9 21/20/9 18/15/9
f 14/18/10 18/15/10 21/20/10 19/21/10
f 23/22/11 24/23/11 26/24/11 25/25/11
f 26/26/12 28/27/12 27/28/12 25/29/12
f 25/30/13 27/31/13 23/32/13
f 29/33/14 30/34/14 32/35/14 31/36/14
f 32/37/15 34/38/15 33/39/15 31/40/15
f 24/23/16 29/33/16 31/36/16 26/24/16
f 31/40/17 33/39/17 28/27/17 26/26/17
f 35/41/18 36/42/18 38/43/18 37/44/18
f 38/45/19 40/46/19 39/47/19 37/48/19
f 43/49/20 45/50/20 42/51/20 41/52/20
f 36/42/21 41/53/21 42/54/21 38/43/21
f 42/55/22 45/56/22 40/46/22 38/45/22
f 50/57/23 51/58/23 49/59/23 48/60/23
f 46/61/24 48/62/24 49/63/24 47/64/24
f 46/65/13 3/66/13 5/67/13
f 56/68/25 57/69/25 55/70/25 54/71/25
f 52/72/26 54/73/26 55/74/26 53/75/26
f 51/58/27 56/68/27 54/71/27 49/59/27
f 47/64/28 49/63/28 54/73/28 52/72/28
f 62/76/29 63/77/29 61/78/29 60/79/29
f 58/80/30 60/81/30 61/82/30 59/83/30
f 67/84/31 68/85/31 65/86/31 64/87/31
f 63/77/32 68/85/32 67/84/32 61/78/32
f 59/83/33 61/82/33 67/88/33 64/89/33
f 71/90/34 72/91/34 70/92/34 69/93/34
f 70/92/35 74/94/35 73/95/35 69/93/35
f 77/96/36 78/97/36 76/98/36 75/99/36
f 76/98/37 80/100/37 79/101/37 75/99/37
f 72/91/38 77/96/38 75/99/38 70/92/38
f 75/99/39 79/101/39 74/94/39 70/92/39
f 83/102/40 84/103/40 82/104/40 81/105/40
f 82/104/41 86/106/41 85/107/41 81/105/41
f 84/103/42 89/108/42 87/109/42 82/104/42
f 87/109/43 90/110/43 86/106/43 82/104/43
f 3/1/44 46/61/44 47/64/44 4/2/44
f 23/32/13 69/111/13 5/67/13
f 9/7/45 52/72/45 53/75/45 10/8/45
f 4/2/46 47/64/46 52/72/46 9/7/46
f 15/13/47 58/80/47 59/83/47 16/14/47
f 21/20/48 65/112/48 66/113/48 22/114/48
f 64/89/49 65/112/49 21/20/49 20/19/49
f 16/14/50 59/83/50 64/89/50 20/19/50
f 28/27/51 72/91/51 71/90/51 27/28/51
f 34/38/52 78/97/52 77/96/52 33/39/52
f 33/39/53 77/96/53 72/91/53 28/27/53
f 40/46/54 84/103/54 83/102/54 39/47/54
f 44/115/55 88/116/55 87/109/55 43/117/55
f 87/109/56 89/108/56 45/56/56 43/117/56
f 45/56/57 89/108/57 84/103/57 40/46/57
f 1/5/58 2/6/58 24/23/58 23/22/58
f 5/67/13 69/111/13 50/118/13
f 7/11/59 8/12/59 30/34/59 29/33/59
f 2/6/60 7/11/60 29/33/60 24/23/60
f 73/95/61 74/94/61 51/58/61 50/57/61
f 5/67/13 1/119/13 23/32/13
f 79/101/62 80/100/62 57/69/62 56/68/62
f 74/94/63 79/101/63 56/68/63 51/58/63
f 13/17/64 14/18/64 36/42/64 35/41/64
f 21/20/65 22/114/65 44/120/65 43/121/65
f 21/20/66 43/121/66 41/53/66 19/21/66
f 14/18/67 19/21/67 41/53/67 36/42/67
f 85/107/68 86/106/68 63/77/68 62/76/68
f 87/109/69 88/116/69 66/122/69 65/86/69
f 68/85/70 90/110/70 87/109/70 65/86/70
f 86/106/71 90/110/71 68/85/71 63/77/71
f 10/8/72 15/13/72 17/16/72 12/9/72
f 8/12/73 12/9/73 17/16/73 13/17/73
f 30/34/74 35/41/74 37/44/74 32/35/74
f 37/48/75 39/47/75 34/38/75 32/37/75
f 57/69/76 62/76/76 60/79/76 55/70/76
f 53/75/77 55/74/77 60/81/77 58/80/77
f 78/97/78 83/102/78 81/105/78 76/98/78
f 81/105/79 85/107/79 80/100/79 76/98/79
f 8/12/80 13/17/80 35/41/80 30/34/80
f 80/100/81 85/107/81 62/76/81 57/69/81
f 10/8/82 53/75/82 58/80/82 15/13/82
f 39/47/83 83/102/83 78/97/83 34/38/83
f 48/123/13 46/65/13 50/118/13
f 66/124/84 88/125/84 44/126/84 22/127/84
f 46/65/13 5/67/13 50/118/13
f 69/111/13 27/31/13 71/128/13
f 73/129/13 50/118/13 69/111/13
f 27/31/13 69/111/13 23/32/13
