# Blender v2.79 (sub 0) OBJ File: 'table.blend'
# www.blender.org
mtllib table_upper.mtl
o upper_visual_upper_mesh
v 0.050877 -0.250183 0.200712
v 0.050877 -0.250183 0.300712
v 0.050877 0.249817 0.200712
v 0.050877 0.249817 0.300712
v 0.250877 -0.250183 0.200712
v 0.250877 -0.250183 0.300712
v 0.250877 0.249817 0.200712
v 0.250877 0.249817 0.300712
vt 0.524997 0.472815
vt 0.524997 0.136839
vt 0.189021 0.136839
vt 0.189021 0.472815
vt 0.491863 0.472815
vt 0.491863 0.136839
vt 0.155887 0.136839
vt 0.155887 0.472815
vt 0.524997 0.472815
vt 0.524997 0.136839
vt 0.860973 0.136839
vt 0.860973 0.472815
vt 0.491863 0.472815
vt 0.491863 0.136839
vt 0.827839 0.136839
vt 0.827839 0.472815
vt 0.491863 0.514910
vt 0.155887 0.514910
vt 0.155887 0.850886
vt 0.491863 0.850886
vt 0.491863 0.514910
vt 0.827839 0.514910
vt 0.827839 0.850886
vt 0.491863 0.850886
vn -1.0000 0.0000 0.0000
vn 0.0000 1.0000 0.0000
vn 1.0000 0.0000 0.0000
vn 0.0000 -1.0000 0.0000
vn 0.0000 0.0000 -1.0000
vn 0.0000 0.0000 1.0000
usemtl Material.001
s off
f 1/1/1 2/2/1 4/3/1 3/4/1
f 3/5/2 4/6/2 8/7/2 7/8/2
f 7/9/3 8/10/3 6/11/3 5/12/3
f 5/13/4 6/14/4 2/15/4 1/16/4
f 3/17/5 7/18/5 5/19/5 1/20/5
f 8/21/6 4/22/6 2/23/6 6/24/6
