# Blender v2.79 (sub 0) OBJ File: 'table.blend'
# www.blender.org
mtllib table.mtl
o table_visual_table_visual_mesh
v -0.246295 0.146632 -0.000773
v -0.246295 0.146632 0.099227
v -0.246295 0.246632 -0.000773
v -0.246295 0.246632 0.099227
v -0.146295 0.146632 -0.000773
v -0.146295 0.146632 0.099227
v -0.146295 0.246632 -0.000773
v -0.146295 0.246632 0.099227
v -0.246295 -0.252788 -0.000773
v -0.246295 -0.252788 0.099227
v -0.246295 -0.152788 -0.000773
v -0.246295 -0.152788 0.099227
v -0.146295 -0.252788 -0.000773
v -0.146295 -0.252788 0.099227
v -0.146295 -0.152788 -0.000773
v -0.146295 -0.152788 0.099227
v 0.151716 -0.252788 -0.000773
v 0.151716 -0.252788 0.099227
v 0.151716 -0.152788 -0.000773
v 0.151716 -0.152788 0.099227
v 0.251716 -0.252788 -0.000773
v 0.251716 -0.252788 0.099227
v 0.251716 -0.152788 -0.000773
v 0.251716 -0.152788 0.099227
v 0.151716 0.146632 -0.000773
v 0.151716 0.146632 0.099227
v 0.151716 0.246632 -0.000773
v 0.151716 0.246632 0.099227
v 0.251716 0.146632 -0.000773
v 0.251716 0.146632 0.099227
v 0.251716 0.246632 -0.000773
v 0.251716 0.246632 0.099227
v -0.246057 -0.252473 0.099403
v -0.246057 -0.252473 0.199403
v -0.246057 0.247527 0.099403
v -0.246057 0.247527 0.199403
v 0.253943 -0.252473 0.099403
v 0.253943 -0.252473 0.199403
v 0.253943 0.247527 0.099403
v 0.253943 0.247527 0.199403
vt 0.738325 0.501712
vt 0.738325 0.664690
vt 0.901303 0.664690
vt 0.901303 0.501712
vt 0.097942 0.501712
vt 0.097942 0.664690
vt 0.260919 0.664690
vt 0.260919 0.501712
vt 0.901303 0.501712
vt 0.901303 0.664690
vt 0.738325 0.664690
vt 0.738325 0.501712
vt 0.260919 0.501712
vt 0.260919 0.664690
vt 0.097942 0.664690
vt 0.097942 0.501712
vt 0.097942 0.904927
vt 0.260919 0.904927
vt 0.260919 0.741949
vt 0.097942 0.741949
vt 0.260919 0.904927
vt 0.097942 0.904927
vt 0.097942 0.741949
vt 0.260919 0.741949
vt 0.087359 0.501712
vt 0.087359 0.664690
vt 0.250337 0.664690
vt 0.250337 0.501712
vt 0.097942 0.501712
vt 0.097942 0.664690
vt 0.260919 0.664690
vt 0.260919 0.501712
vt 0.250337 0.501712
vt 0.250337 0.664690
vt 0.087359 0.664690
vt 0.087359 0.501712
vt 0.260919 0.501712
vt 0.260919 0.664690
vt 0.097942 0.664690
vt 0.097942 0.501712
vt 0.097942 0.253961
vt 0.260919 0.253961
vt 0.260919 0.090983
vt 0.097942 0.090983
vt 0.260919 0.253961
vt 0.097942 0.253961
vt 0.097942 0.090983
vt 0.260919 0.090983
vt 0.087359 0.501712
vt 0.087359 0.664690
vt 0.250337 0.664690
vt 0.250337 0.501712
vt 0.746612 0.501712
vt 0.746612 0.664690
vt 0.909590 0.664690
vt 0.909590 0.501712
vt 0.250337 0.501712
vt 0.250337 0.664690
vt 0.087359 0.664690
vt 0.087359 0.501712
vt 0.909590 0.501712
vt 0.909590 0.664690
vt 0.746612 0.664690
vt 0.746612 0.501712
vt 0.746612 0.253961
vt 0.909590 0.253961
vt 0.909590 0.090983
vt 0.746612 0.090983
vt 0.909590 0.253961
vt 0.746612 0.253961
vt 0.746612 0.090983
vt 0.909590 0.090983
vt 0.738325 0.501712
vt 0.738325 0.664690
vt 0.901303 0.664690
vt 0.901303 0.501712
vt 0.746612 0.501712
vt 0.746612 0.664690
vt 0.909590 0.664690
vt 0.909590 0.501712
vt 0.901303 0.501712
vt 0.901303 0.664690
vt 0.738325 0.664690
vt 0.738325 0.501712
vt 0.909590 0.501712
vt 0.909590 0.664690
vt 0.746612 0.664690
vt 0.746612 0.501712
vt 0.746612 0.904927
vt 0.909590 0.904927
vt 0.909590 0.741949
vt 0.746612 0.741949
vt 0.909590 0.904927
vt 0.746612 0.904927
vt 0.746612 0.741949
vt 0.909590 0.741949
vt 0.087872 0.664977
vt 0.087872 0.827955
vt 0.902762 0.827955
vt 0.902762 0.664977
vt 0.098329 0.664977
vt 0.098329 0.827955
vt 0.913219 0.827955
vt 0.913219 0.664977
vt 0.902762 0.664977
vt 0.902762 0.827955
vt 0.087872 0.827955
vt 0.087872 0.664977
vt 0.913219 0.664977
vt 0.913219 0.827955
vt 0.098329 0.827955
vt 0.098329 0.664977
vt 0.098329 0.906386
vt 0.913219 0.906386
vt 0.913219 0.091497
vt 0.098329 0.091497
vt 0.913219 0.906386
vt 0.098329 0.906386
vt 0.098329 0.091497
vt 0.913219 0.091497
vn -1.0000 0.0000 0.0000
vn 0.0000 1.0000 0.0000
vn 1.0000 0.0000 0.0000
vn 0.0000 -1.0000 0.0000
vn 0.0000 0.0000 -1.0000
vn 0.0000 0.0000 1.0000
usemtl Material
s off
f 1/1/1 2/2/1 4/3/1 3/4/1
f 3/5/2 4/6/2 8/7/2 7/8/2
f 7/9/3 8/10/3 6/11/3 5/12/3
f 5/13/4 6/14/4 2/15/4 1/16/4
f 3/17/5 7/18/5 5/19/5 1/20/5
f 8/21/6 4/22/6 2/23/6 6/24/6
f 9/25/1 10/26/1 12/27/1 11/28/1
f 11/29/2 12/30/2 16/31/2 15/32/2
f 15/33/3 16/34/3 14/35/3 13/36/3
f 13/37/4 14/38/4 10/39/4 9/40/4
f 11/41/5 15/42/5 13/43/5 9/44/5
f 16/45/6 12/46/6 10/47/6 14/48/6
f 17/49/1 18/50/1 20/51/1 19/52/1
f 19/53/2 20/54/2 24/55/2 23/56/2
f 23/57/3 24/58/3 22/59/3 21/60/3
f 21/61/4 22/62/4 18/63/4 17/64/4
f 19/65/5 23/66/5 21/67/5 17/68/5
f 24/69/6 20/70/6 18/71/6 22/72/6
f 25/73/1 26/74/1 28/75/1 27/76/1
f 27/77/2 28/78/2 32/79/2 31/80/2
f 31/81/3 32/82/3 30/83/3 29/84/3
f 29/85/4 30/86/4 26/87/4 25/88/4
f 27/89/5 31/90/5 29/91/5 25/92/5
f 32/93/6 28/94/6 26/95/6 30/96/6
f 33/97/1 34/98/1 36/99/1 35/100/1
f 35/101/2 36/102/2 40/103/2 39/104/2
f 39/105/3 40/106/3 38/107/3 37/108/3
f 37/109/4 38/110/4 34/111/4 33/112/4
f 35/113/5 39/114/5 37/115/5 33/116/5
f 40/117/6 36/118/6 34/119/6 38/120/6
